# xmcd CD database file
#
# Track frame offsets:
#	150
#	12223
#	27464
#	45906
#	72275
#	95494
#	110674
#	122148
#	142491
#	160640
#	181243
#	202471
#	214209
#	229431
#	249494
#	261434
#	276560
#	295972
#	307963
#	325183
#	344019
#
# Disc length: 4795 seconds
#
# Revision: 0
# Processed by: cddbd v1.5.2PL0 Copyright (c) Steve Scherf et al.
# Submitted via: CDex 1.70beta2
#
DISCID=5612b915
DTITLE=Mayck e Lyan - Só Modão - Vol. I
DYEAR=2006
DGENRE=Sertanejo
TTITLE0=Entre a Serpente e a Estrela
TTITLE1=Medo da Chuva
TTITLE2=Cidadão
TTITLE3=Admirável Gado Novo
TTITLE4=Sinônimos
TTITLE5=Fogão de Lenha
TTITLE6=Mãe
TTITLE7=Caminheiro
TTITLE8=Deslizes
TTITLE9=Força do Amor
TTITLE10=Tocando em Frente
TTITLE11=Cuitelinho
TTITLE12=De Igual Pra Igual
TTITLE13=Coração Sertanejo
TTITLE14=Rédeas do Possante
TTITLE15=Você Me Faz Feliz
TTITLE16=Encantos da Natureza
TTITLE17=Batendo na Porta do Céu
TTITLE18=Porta do Mundo
TTITLE19=Menino da Porteira
TTITLE20=Rodo Sem Borracha
EXTD=YEAR: 2006
EXTT0=
EXTT1=
EXTT2=
EXTT3=
EXTT4=
EXTT5=
EXTT6=
EXTT7=
EXTT8=
EXTT9=
EXTT10=
EXTT11=
EXTT12=
EXTT13=
EXTT14=
EXTT15=
EXTT16=
EXTT17=
EXTT18=
EXTT19=
EXTT20=
PLAYORDER=
